<?xml version="1.0" encoding="UTF-8" standalone="no"?>
<svg
   xmlns:dc="http://purl.org/dc/elements/1.1/"
   xmlns:cc="http://creativecommons.org/ns#"
   xmlns:rdf="http://www.w3.org/1999/02/22-rdf-syntax-ns#"
   xmlns:svg="http://www.w3.org/2000/svg"
   xmlns="http://www.w3.org/2000/svg"
   xmlns:sodipodi="http://sodipodi.sourceforge.net/DTD/sodipodi-0.dtd"
   xmlns:inkscape="http://www.inkscape.org/namespaces/inkscape"
   version="1.1"
   id="svg2"
   viewBox="0 0 39.999999 24.721266"
   height="6.9768906mm"
   width="11.288889mm"
   inkscape:version="0.91 r13725"
   sodipodi:docname="cl.svg">
  <sodipodi:namedview
     pagecolor="#ffffff"
     bordercolor="#666666"
     borderopacity="1"
     objecttolerance="10"
     gridtolerance="10"
     guidetolerance="10"
     inkscape:pageopacity="0"
     inkscape:pageshadow="2"
     inkscape:window-width="1920"
     inkscape:window-height="1056"
     id="namedview8"
     showgrid="false"
     inkscape:zoom="1.6710112"
     inkscape:cx="92.458988"
     inkscape:cy="57.142583"
     inkscape:window-x="1360"
     inkscape:window-y="24"
     inkscape:window-maximized="1"
     inkscape:current-layer="svg2"
     fit-margin-top="0"
     fit-margin-left="0"
     fit-margin-right="0"
     fit-margin-bottom="0" />
  <defs
     id="defs4" />
  <metadata
     id="metadata7">
    <rdf:RDF>
      <cc:Work
         rdf:about="">
        <dc:format>image/svg+xml</dc:format>
        <dc:type
           rdf:resource="http://purl.org/dc/dcmitype/StillImage" />
        <dc:title></dc:title>
      </cc:Work>
    </rdf:RDF>
  </metadata>
  <g
     transform="matrix(0.21631213,0,0,0.21631213,-43.262426,-82.400556)"
     id="layer1">
    <path
       id="rect4136"
       d="m 205,380.93359 c -2.77,0 -5,2.23 -5,5 l 0,104.28516 c 0,2.77 2.23,5 5,5 l 174.91797,0 c 2.77,0 5,-2.23 5,-5 l 0,-104.28516 c 0,-2.77 -2.23,-5 -5,-5 l -174.91797,0 z m 12.46289,14.5 c 2.32788,0.011 4.45196,1.16905 6.50781,2.13086 4.39666,3.71081 10.51969,2.91937 14.98047,6.25391 5.54286,3.69853 2.14893,12.02258 -3.99805,12.47852 -6.89615,-0.45193 -14.74942,10.93081 -20.58007,4.04882 -2.61118,-5.77705 5.21455,-6.46728 9.21679,-8.26758 13.0138,-2.59439 1.90465,-5.17345 -4.85351,-7.75585 -5.82215,0.87609 -6.94313,-8.7179 -1.27344,-8.88868 z m 28.79297,33.28321 c 2.33698,-0.0239 5.54535,0.7625 7.11719,0.20312 6.64104,0.76348 16.34705,-1.53868 21.04492,1.16797 2.76148,9.60732 -8.65032,5.04292 -14.48438,6.05469 -5.50941,-1.57466 -18.24635,4.07849 -16.36718,-4.88477 -0.41813,-2.01434 0.8718,-2.52245 2.68945,-2.54101 z"
       style="opacity:1;fill:#000000;fill-opacity:1;stroke:none;stroke-width:3;stroke-linecap:round;stroke-linejoin:round;stroke-miterlimit:4;stroke-dasharray:none;stroke-dashoffset:0;stroke-opacity:1"
       inkscape:connector-curvature="0" />
    <g
       id="text4138"
       style="font-style:normal;font-weight:normal;font-size:18.75px;line-height:1000%;font-family:sans-serif;text-align:start;letter-spacing:1px;word-spacing:0px;text-anchor:start;fill:#ffffff;fill-opacity:1;stroke:none;stroke-width:1px;stroke-linecap:butt;stroke-linejoin:miter;stroke-opacity:1" />
  </g>
</svg>
